<svg xmlns="http://www.w3.org/2000/svg" viewBox="0 0 100 100">
  <g fill="#E60012" transform="translate(50,50)">
    <g><path d="M0,-42 C3,-26 4.5,-18 4.5,-12 L0,-9 L-4.5,-12 C-4.5,-18 -3,-26 0,-42 Z"/></g>
    <g transform="rotate(45)"><path d="M0,-42 C3,-26 4.5,-18 4.5,-12 L0,-9 L-4.5,-12 C-4.5,-18 -3,-26 0,-42 Z"/></g>
    <g transform="rotate(90)"><path d="M0,-42 C3,-26 4.5,-18 4.5,-12 L0,-9 L-4.5,-12 C-4.5,-18 -3,-26 0,-42 Z"/></g>
    <g transform="rotate(135)"><path d="M0,-42 C3,-26 4.5,-18 4.5,-12 L0,-9 L-4.5,-12 C-4.5,-18 -3,-26 0,-42 Z"/></g>
    <g transform="rotate(180)"><path d="M0,-42 C3,-26 4.5,-18 4.5,-12 L0,-9 L-4.5,-12 C-4.5,-18 -3,-26 0,-42 Z"/></g>
    <g transform="rotate(225)"><path d="M0,-42 C3,-26 4.5,-18 4.5,-12 L0,-9 L-4.5,-12 C-4.5,-18 -3,-26 0,-42 Z"/></g>
    <g transform="rotate(270)"><path d="M0,-42 C3,-26 4.5,-18 4.5,-12 L0,-9 L-4.5,-12 C-4.5,-18 -3,-26 0,-42 Z"/></g>
    <g transform="rotate(315)"><path d="M0,-42 C3,-26 4.5,-18 4.5,-12 L0,-9 L-4.5,-12 C-4.5,-18 -3,-26 0,-42 Z"/></g>
    <circle r="7"/>
  </g>
</svg>
